<svg width="32" height="32" viewBox="0 0 32 32" fill="none" xmlns="http://www.w3.org/2000/svg">
<path d="M32 16.0596C32 7.18918 24.8375 0 16 0C7.1625 0 0 7.18918 0 16.0596C0 23.5875 5.16875 29.911 12.1375 31.6487V20.9653H8.8375V16.0596H12.1375V13.9455C12.1375 8.48147 14.6 5.94707 19.95 5.94707C20.9625 5.94707 22.7125 6.14781 23.4312 6.34856V10.79C23.0562 10.7524 22.4 10.7273 21.5812 10.7273C18.9562 10.7273 17.9438 11.7248 17.9438 14.3156V16.0596H23.1688L22.2687 20.9653H17.9375V32C25.8625 31.0402 32 24.2713 32 16.0596Z" fill="#F8F8F8"/>
</svg>
