<svg width="160" height="128" viewBox="0 0 160 128" fill="none" xmlns="http://www.w3.org/2000/svg">
<path d="M101.059 21.1139C106.885 21.1139 111.608 16.3874 111.608 10.5569C111.608 4.7265 106.885 0 101.059 0C95.2331 0 90.5102 4.7265 90.5102 10.5569C90.5102 16.3874 95.2331 21.1139 101.059 21.1139Z" fill="#585856"/>
<path d="M159.602 113.518L145.984 127.578C145.855 127.711 145.7 127.816 145.53 127.888C145.36 127.961 145.177 127.999 144.993 128C144.808 128.001 144.624 127.966 144.453 127.897C144.282 127.827 144.126 127.724 143.995 127.594L117.376 100.985C117.113 100.725 116.758 100.579 116.389 100.579C116.019 100.579 115.664 100.725 115.402 100.985L88.8755 127.517C88.6127 127.777 88.258 127.923 87.8884 127.923C87.5188 127.923 87.1642 127.777 86.9014 127.517L29.0988 69.7468C28.8388 69.4892 28.4885 69.3435 28.1226 69.3406C27.7568 69.3377 27.4042 69.4779 27.1402 69.7314L15.8819 80.6587C15.6179 80.9122 15.2653 81.0524 14.8995 81.0495C14.5336 81.0466 14.1834 80.9009 13.9233 80.6433L0.413419 67.1847C0.282389 67.0542 0.178415 66.8991 0.107467 66.7283C0.0365191 66.5574 0 66.3742 0 66.1892C0 66.0042 0.0365191 65.8211 0.107467 65.6502C0.178415 65.4794 0.282389 65.3242 0.413419 65.1937L42.547 23.0277C42.8098 22.7676 43.1644 22.6217 43.534 22.6217C43.9036 22.6217 44.2583 22.7676 44.5211 23.0277L71.2787 49.7751C71.5414 50.0352 71.8961 50.1811 72.2657 50.1811C72.6353 50.1811 72.99 50.0352 73.2527 49.7751L100.165 22.8734C100.427 22.6132 100.782 22.4673 101.152 22.4673C101.521 22.4673 101.876 22.6132 102.139 22.8734L144.318 65.0394C144.578 65.3023 144.724 65.6573 144.724 66.0272C144.724 66.3971 144.578 66.752 144.318 67.015L130.623 80.7205C130.493 80.852 130.391 81.0079 130.321 81.1793C130.251 81.3507 130.216 81.5342 130.218 81.7192C130.219 81.9042 130.257 82.0871 130.329 82.2574C130.402 82.4277 130.507 82.582 130.639 82.7115L159.586 111.542C159.848 111.803 159.997 112.157 160 112.527C160.003 112.897 159.86 113.253 159.602 113.518ZM9.0653 64.0825C7.71843 65.2349 7.6773 66.5416 8.94193 68.0027C10.7412 70.0915 12.5662 71.8098 14.4168 73.1577C14.9103 73.5179 15.3781 73.4819 15.8203 73.0497L42.3157 46.8889C42.6316 46.575 43.0593 46.3991 43.5065 46.3991C43.9537 46.3991 44.3845 46.575 44.7061 46.8889L71.7105 73.2812C72.2965 73.8677 72.8877 73.8677 73.4841 73.2812L100.627 46.395C100.987 46.0348 101.347 46.0297 101.707 46.3795L128.665 72.9108C129.261 73.4973 129.863 73.5024 130.469 72.9262L136.669 67.0304C136.779 66.925 136.867 66.7986 136.928 66.6587C136.988 66.5188 137.02 66.3681 137.022 66.2156C137.023 66.0632 136.994 65.9119 136.936 65.7709C136.878 65.6298 136.793 65.5018 136.684 65.3944L101.63 30.4515C101.452 30.279 101.215 30.1823 100.97 30.1823C100.724 30.1823 100.491 30.279 100.319 30.4515L73.2065 57.4921C73.0874 57.6125 72.9457 57.7081 72.7895 57.7733C72.6333 57.8385 72.4658 57.8721 72.2965 57.8721C72.1273 57.8721 71.9597 57.8385 71.8036 57.7733C71.6474 57.7081 71.5057 57.6125 71.3866 57.4921L44.336 30.6985C44.1061 30.4713 43.7966 30.3438 43.4755 30.3438C43.1545 30.3438 42.8483 30.4713 42.6241 30.6985C31.8902 41.3583 21.0947 52.1468 10.2374 63.0638C10.1963 63.105 9.80557 63.4445 9.0653 64.0825ZM102.092 61.7828C101.821 61.5151 101.455 61.365 101.074 61.365C100.694 61.365 100.328 61.5151 100.057 61.7828L73.4686 88.1597C73.1974 88.4274 72.8317 88.5775 72.4508 88.5775C72.0698 88.5775 71.7042 88.4274 71.4329 88.1597L44.922 61.6439C44.7864 61.51 44.6257 61.4042 44.4492 61.3326C44.2727 61.2609 44.0838 61.2247 43.8933 61.2262C43.7028 61.2276 43.5144 61.2666 43.339 61.3409C43.1636 61.4152 43.0045 61.5234 42.8709 61.6593L36.8716 67.833C36.7379 67.9687 36.6322 68.1295 36.5605 68.3062C36.4889 68.4828 36.4528 68.6719 36.4542 68.8625C36.4557 69.0532 36.4946 69.2417 36.5689 69.4172C36.6431 69.5928 36.7513 69.752 36.887 69.8857L71.6025 104.196C71.8738 104.463 72.2394 104.614 72.6204 104.614C73.0014 104.614 73.367 104.463 73.6383 104.196L108.045 69.7622C108.18 69.6275 108.287 69.4675 108.36 69.2914C108.433 69.1153 108.47 68.9265 108.47 68.7359C108.47 68.5452 108.433 68.3565 108.36 68.1804C108.287 68.0042 108.18 67.8442 108.045 67.7095L102.092 61.7828ZM152.014 113.688C152.121 113.585 152.206 113.462 152.265 113.327C152.324 113.191 152.355 113.044 152.356 112.896C152.358 112.748 152.33 112.601 152.273 112.464C152.217 112.327 152.134 112.203 152.03 112.098L117.222 77.0008C117.118 76.8972 116.996 76.815 116.861 76.759C116.726 76.7029 116.581 76.674 116.435 76.674C116.289 76.674 116.144 76.7029 116.009 76.759C115.874 76.815 115.752 76.8972 115.648 77.0008L80.7325 111.697C80.5261 111.903 80.4087 112.181 80.4058 112.473C80.403 112.765 80.5147 113.046 80.7171 113.256L87.0094 119.676C87.213 119.885 87.4905 120.005 87.7819 120.011C88.0733 120.017 88.3553 119.908 88.567 119.707L115.695 93.0678C115.902 92.8632 116.182 92.7486 116.474 92.7486C116.765 92.7486 117.045 92.8632 117.252 93.0678L144.226 119.661C144.432 119.867 144.71 119.985 145.002 119.988C145.293 119.991 145.574 119.879 145.784 119.676L152.014 113.688Z" fill="#585856"/>
</svg>
