<svg width="29" height="32" viewBox="0 0 29 32" fill="none" xmlns="http://www.w3.org/2000/svg">
<path d="M29 13.12C26.1492 13.1259 23.3685 12.2666 21.0509 10.6635V21.8396C21.0502 23.9095 20.3951 25.9298 19.1731 27.6304C17.9511 29.331 16.2205 30.6308 14.2128 31.3559C12.205 32.081 10.0159 32.1969 7.93806 31.6881C5.86026 31.1793 3.99287 30.07 2.58565 28.5086C1.17844 26.9472 0.298476 25.0082 0.0634599 22.9508C-0.171556 20.8934 0.249577 18.8158 1.27054 16.9958C2.2915 15.1757 3.86361 13.7001 5.77661 12.7662C7.68961 11.8324 9.85231 11.4848 11.9755 11.7699V17.3892C11.0046 17.0941 9.96209 17.1027 8.99667 17.4139C8.03124 17.725 7.1923 18.3227 6.59963 19.1217C6.00697 19.9207 5.69088 20.88 5.69651 21.8628C5.70214 22.8455 6.02919 23.8015 6.63096 24.594C7.23274 25.3866 8.07847 25.9754 9.0474 26.2762C10.0163 26.577 11.0589 26.5745 12.0263 26.269C12.9937 25.9636 13.8364 25.3708 14.4341 24.5754C15.0318 23.7799 15.3539 22.8224 15.3545 21.8396V0H21.0509C21.0477 0.465211 21.0889 0.929719 21.1739 1.38764C21.372 2.40836 21.7836 3.37936 22.3835 4.24129C22.9834 5.10321 23.759 5.83796 24.6629 6.40063C25.9497 7.22124 27.458 7.65817 29 7.657V13.12Z" fill="#F8F8F8"/>
</svg>
