<svg width="24" height="18" viewBox="0 0 24 18" fill="none" xmlns="http://www.w3.org/2000/svg">
<path d="M12.4266 1.92857C9.80718 1.92857 7.6538 3.11786 6.0026 4.64866C4.45586 6.08705 3.3872 7.79464 2.84082 9C3.3872 10.2054 4.45586 11.9129 5.99858 13.3513C7.6538 14.8821 9.80718 16.0714 12.4266 16.0714C15.046 16.0714 17.1994 14.8821 18.8506 13.3513C20.3973 11.9129 21.466 10.2054 22.0124 9C21.466 7.79464 20.3973 6.08705 18.8546 4.64866C17.1994 3.11786 15.046 1.92857 12.4266 1.92857ZM4.68888 3.23839C6.58112 1.47857 9.18045 0 12.4266 0C15.6727 0 18.2721 1.47857 20.1643 3.23839C22.0445 4.98616 23.302 7.07143 23.9006 8.5058C24.0332 8.82321 24.0332 9.17679 23.9006 9.4942C23.302 10.9286 22.0445 13.0179 20.1643 14.7616C18.2721 16.5214 15.6727 18 12.4266 18C9.18045 18 6.58112 16.5214 4.68888 14.7616C2.80868 13.0179 1.5512 10.9286 0.956611 9.4942C0.824033 9.17679 0.824033 8.82321 0.956611 8.5058C1.5512 7.07143 2.80868 4.98214 4.68888 3.23839ZM12.4266 12.2143C14.2023 12.2143 15.6406 10.7759 15.6406 9C15.6406 7.22411 14.2023 5.78571 12.4266 5.78571C12.3985 5.78571 12.3744 5.78571 12.3462 5.78571C12.3985 5.99062 12.4266 6.20759 12.4266 6.42857C12.4266 7.84687 11.2736 9 9.85539 9C9.63443 9 9.41749 8.97188 9.21259 8.91964C9.21259 8.94777 9.21259 8.97188 9.21259 9C9.21259 10.7759 10.6509 12.2143 12.4266 12.2143ZM12.4266 3.85714C13.7905 3.85714 15.0984 4.39898 16.0628 5.36345C17.0272 6.32792 17.569 7.63603 17.569 9C17.569 10.364 17.0272 11.6721 16.0628 12.6365C15.0984 13.601 13.7905 14.1429 12.4266 14.1429C11.0627 14.1429 9.75475 13.601 8.79036 12.6365C7.82598 11.6721 7.28419 10.364 7.28419 9C7.28419 7.63603 7.82598 6.32792 8.79036 5.36345C9.75475 4.39898 11.0627 3.85714 12.4266 3.85714Z" fill="#F8F8F8"/>
</svg>
