<svg width="384" height="34" viewBox="0 0 384 34" fill="none" xmlns="http://www.w3.org/2000/svg">
<path d="M26.3305 5.82714C27.8484 5.82714 29.0789 4.59576 29.0789 3.07678C29.0789 1.55779 27.8484 0.326416 26.3305 0.326416C24.8126 0.326416 23.582 1.55779 23.582 3.07678C23.582 4.59576 24.8126 5.82714 26.3305 5.82714Z" fill="#585856"/>
<path d="M41.5836 29.9008L38.0355 33.564C38.0018 33.5984 37.9616 33.6258 37.9173 33.6447C37.873 33.6635 37.8253 33.6734 37.7772 33.6738C37.729 33.6741 37.6812 33.665 37.6366 33.6468C37.592 33.6287 37.5514 33.6019 37.5172 33.568L30.5817 26.6358C30.5133 26.568 30.4209 26.53 30.3246 26.53C30.2283 26.53 30.1359 26.568 30.0674 26.6358L23.1561 33.5479C23.0877 33.6157 22.9952 33.6537 22.8989 33.6537C22.8027 33.6537 22.7102 33.6157 22.6418 33.5479L7.58157 18.4973C7.51381 18.4302 7.42255 18.3922 7.32723 18.3915C7.2319 18.3907 7.14006 18.4272 7.07126 18.4933L4.13797 21.3401C4.06917 21.4062 3.97732 21.4427 3.882 21.4419C3.78667 21.4412 3.69541 21.4032 3.62766 21.3361L0.107714 17.8298C0.0735752 17.7958 0.0464852 17.7554 0.0280001 17.7109C0.0095149 17.6664 0 17.6187 0 17.5705C0 17.5223 0.0095149 17.4745 0.0280001 17.43C0.0464852 17.3855 0.0735752 17.3451 0.107714 17.3111L11.0854 6.32574C11.1539 6.25797 11.2463 6.21996 11.3426 6.21996C11.4389 6.21996 11.5313 6.25797 11.5998 6.32574L18.5713 13.2941C18.6398 13.3619 18.7322 13.3999 18.8285 13.3999C18.9248 13.3999 19.0172 13.3619 19.0857 13.2941L26.0974 6.28553C26.1659 6.21776 26.2583 6.17975 26.3546 6.17975C26.4509 6.17975 26.5433 6.21776 26.6118 6.28553L37.6015 17.2709C37.6693 17.3394 37.7073 17.4319 37.7073 17.5282C37.7073 17.6246 37.6693 17.7171 37.6015 17.7856L34.0334 21.3562C33.9995 21.3905 33.9727 21.4311 33.9546 21.4758C33.9364 21.5204 33.9273 21.5682 33.9277 21.6164C33.928 21.6646 33.9379 21.7123 33.9568 21.7566C33.9756 21.801 34.003 21.8412 34.0374 21.8749L41.5796 29.3862C41.6478 29.4541 41.6865 29.5463 41.6873 29.6427C41.688 29.739 41.6508 29.8318 41.5836 29.9008ZM2.36193 17.0216C2.011 17.3218 2.00029 17.6623 2.32978 18.0429C2.79857 18.5871 3.27406 19.0348 3.75624 19.3859C3.88482 19.4798 4.00671 19.4704 4.1219 19.3578L11.0252 12.5422C11.1075 12.4604 11.2189 12.4146 11.3354 12.4146C11.4519 12.4146 11.5642 12.4604 11.648 12.5422L18.6839 19.4181C18.8365 19.5709 18.9906 19.5709 19.146 19.4181L26.218 12.4135C26.3117 12.3197 26.4055 12.3184 26.4993 12.4095L33.5231 19.3216C33.6784 19.4744 33.8351 19.4757 33.9932 19.3256L35.6085 17.7896C35.6372 17.7621 35.6601 17.7292 35.6759 17.6928C35.6917 17.6563 35.7 17.6171 35.7004 17.5773C35.7007 17.5376 35.6932 17.4982 35.6781 17.4615C35.663 17.4247 35.6407 17.3914 35.6125 17.3634L26.4792 8.25984C26.4329 8.2149 26.3712 8.18971 26.3072 8.18971C26.2433 8.18971 26.1824 8.2149 26.1376 8.25984L19.0736 15.3046C19.0426 15.336 19.0057 15.3609 18.965 15.3779C18.9243 15.3949 18.8806 15.4036 18.8365 15.4036C18.7925 15.4036 18.7488 15.3949 18.7081 15.3779C18.6674 15.3609 18.6305 15.336 18.5995 15.3046L11.5515 8.32418C11.4916 8.265 11.411 8.23176 11.3274 8.23176C11.2437 8.23176 11.1639 8.265 11.1055 8.32418C8.30886 11.1013 5.49612 13.912 2.66731 16.7562C2.65659 16.7669 2.5548 16.8554 2.36193 17.0216ZM26.5997 16.4225C26.529 16.3527 26.4338 16.3136 26.3345 16.3136C26.2353 16.3136 26.14 16.3527 26.0693 16.4225L19.1419 23.2943C19.0713 23.3641 18.976 23.4032 18.8767 23.4032C18.7775 23.4032 18.6822 23.3641 18.6115 23.2943L11.7042 16.3863C11.6689 16.3514 11.627 16.3238 11.581 16.3052C11.5351 16.2865 11.4858 16.2771 11.4362 16.2774C11.3866 16.2778 11.3375 16.288 11.2918 16.3073C11.2461 16.3267 11.2046 16.3549 11.1698 16.3903L9.60674 17.9987C9.57189 18.0341 9.54435 18.076 9.52569 18.122C9.50703 18.168 9.49761 18.2173 9.49799 18.2669C9.49836 18.3166 9.50851 18.3657 9.52786 18.4114C9.54721 18.4572 9.57538 18.4986 9.61076 18.5335L18.6557 27.4722C18.7264 27.5419 18.8217 27.581 18.9209 27.581C19.0202 27.581 19.1155 27.5419 19.1861 27.4722L28.1507 18.5013C28.1858 18.4662 28.2137 18.4245 28.2327 18.3786C28.2517 18.3328 28.2615 18.2836 28.2615 18.2339C28.2615 18.1843 28.2517 18.1351 28.2327 18.0892C28.2137 18.0433 28.1858 18.0016 28.1507 17.9665L26.5997 16.4225ZM39.6066 29.9451C39.6345 29.9184 39.6567 29.8864 39.672 29.851C39.6873 29.8155 39.6954 29.7774 39.6958 29.7388C39.6961 29.7002 39.6888 29.662 39.6742 29.6263C39.6596 29.5906 39.638 29.5581 39.6106 29.5309L30.5416 20.3872C30.5147 20.3602 30.4827 20.3388 30.4476 20.3241C30.4124 20.3095 30.3747 20.302 30.3366 20.302C30.2986 20.302 30.2609 20.3095 30.2257 20.3241C30.1905 20.3388 30.1586 20.3602 30.1317 20.3872L21.0345 29.4264C20.9807 29.48 20.9501 29.5526 20.9494 29.6286C20.9486 29.7046 20.9778 29.7778 21.0305 29.8325L22.6699 31.5052C22.723 31.5596 22.7953 31.5909 22.8712 31.5924C22.9471 31.5939 23.0206 31.5655 23.0757 31.5133L30.1438 24.573C30.1979 24.5197 30.2708 24.4899 30.3467 24.4899C30.4226 24.4899 30.4955 24.5197 30.5496 24.573L37.5774 31.5012C37.631 31.555 37.7036 31.5856 37.7795 31.5864C37.8555 31.5871 37.9286 31.558 37.9833 31.5052L39.6066 29.9451Z" fill="#585856"/>
<path d="M50.8167 26.2484V8.23433H52.9254L61.0004 21.8478H59.8689L67.841 8.23433H69.9497L69.9754 26.2484H67.5066L67.4809 12.1202H68.0724L60.9747 24.061H59.7917L52.6425 12.1202H53.2854V26.2484H50.8167Z" fill="#585856"/>
<path d="M80.3968 26.2484L72.4762 8.23433H75.2535L82.5313 24.8587H80.9369L88.2661 8.23433H90.8377L82.9428 26.2484H80.3968Z" fill="#585856"/>
<path d="M89.8298 26.2484L97.9819 8.23433H100.528L108.706 26.2484H106.005L98.7277 9.67545H99.7563L92.4786 26.2484H89.8298ZM93.3015 21.7449L93.9958 19.6861H104.128L104.874 21.7449H93.3015Z" fill="#585856"/>
<path d="M118.487 26.2484V8.23433H125.43C127.351 8.23433 129.022 8.62892 130.445 9.41811C131.868 10.1901 132.974 11.2538 133.763 12.6092C134.568 13.9474 134.971 15.4914 134.971 17.2414C134.971 18.9913 134.568 20.5439 133.763 21.8993C132.974 23.2375 131.868 24.3012 130.445 25.0903C129.022 25.8624 127.351 26.2484 125.43 26.2484H118.487ZM119.361 25.4506H125.379C127.145 25.4506 128.679 25.0989 129.982 24.3955C131.302 23.6921 132.314 22.7228 133.017 21.4875C133.737 20.2523 134.097 18.8369 134.097 17.2414C134.097 15.6458 133.737 14.2304 133.017 12.9952C132.314 11.7599 131.302 10.7906 129.982 10.0872C128.679 9.3838 127.145 9.03209 125.379 9.03209H119.361V25.4506Z" fill="#585856"/>
<path d="M139.296 26.2484V12.8923H140.145V26.2484H139.296ZM139.707 9.39238C139.485 9.39238 139.287 9.30659 139.116 9.13503C138.945 8.96347 138.859 8.77475 138.859 8.56888C138.859 8.32869 138.945 8.13139 139.116 7.97699C139.287 7.80542 139.485 7.71964 139.707 7.71964C139.948 7.71964 140.145 7.80542 140.299 7.97699C140.47 8.13139 140.556 8.32011 140.556 8.54314C140.556 8.76617 140.47 8.96347 140.299 9.13503C140.145 9.30659 139.948 9.39238 139.707 9.39238Z" fill="#585856"/>
<path d="M145.851 26.2484V12.8923H146.674V16.5723L146.596 16.3407C146.957 15.2255 147.582 14.3591 148.474 13.7415C149.382 13.1067 150.514 12.7893 151.868 12.7893V13.6385C151.834 13.6385 151.791 13.6385 151.74 13.6385C151.705 13.6385 151.671 13.6385 151.637 13.6385C150.094 13.6385 148.885 14.1275 148.011 15.1054C147.137 16.0833 146.699 17.4301 146.699 19.1457V26.2484H145.851Z" fill="#585856"/>
<path d="M160.715 26.3256C159.395 26.3256 158.23 26.0425 157.218 25.4764C156.206 24.893 155.409 24.0867 154.826 23.0573C154.243 22.028 153.952 20.8613 153.952 19.5575C153.952 18.2364 154.218 17.0698 154.749 16.0576C155.298 15.0454 156.044 14.2476 156.987 13.6643C157.947 13.081 159.027 12.7893 160.227 12.7893C161.41 12.7893 162.473 13.0724 163.416 13.6385C164.376 14.2047 165.122 14.9939 165.653 16.0061C166.202 17.0012 166.476 18.1506 166.476 19.4545C166.476 19.4888 166.476 19.5317 166.476 19.5832C166.476 19.6175 166.476 19.6518 166.476 19.6861H154.518V18.9913H166.013L165.679 19.403C165.679 18.2879 165.439 17.2928 164.959 16.4179C164.496 15.5257 163.853 14.8309 163.03 14.3334C162.207 13.8187 161.273 13.5613 160.227 13.5613C159.181 13.5613 158.247 13.8187 157.424 14.3334C156.601 14.8309 155.949 15.5257 155.469 16.4179C155.006 17.2928 154.775 18.2965 154.775 19.4288V19.5832C154.775 20.7498 155.032 21.7878 155.546 22.697C156.061 23.5892 156.764 24.2926 157.655 24.8073C158.547 25.3048 159.567 25.5536 160.715 25.5536C161.59 25.5536 162.413 25.3906 163.184 25.0646C163.973 24.7386 164.624 24.2411 165.139 23.572L165.679 24.1382C165.079 24.8587 164.341 25.4077 163.467 25.7852C162.61 26.1455 161.693 26.3256 160.715 26.3256Z" fill="#585856"/>
<path d="M170.663 26.2484V12.8923H171.512V26.2484H170.663ZM171.075 9.39238C170.852 9.39238 170.655 9.30659 170.483 9.13503C170.312 8.96347 170.226 8.77475 170.226 8.56888C170.226 8.32869 170.312 8.13139 170.483 7.97699C170.655 7.80542 170.852 7.71964 171.075 7.71964C171.315 7.71964 171.512 7.80542 171.666 7.97699C171.837 8.13139 171.923 8.32011 171.923 8.54314C171.923 8.76617 171.837 8.96347 171.666 9.13503C171.512 9.30659 171.315 9.39238 171.075 9.39238Z" fill="#585856"/>
<path d="M180.844 26.3256C179.747 26.3256 178.906 26.0168 178.324 25.3992C177.741 24.7815 177.449 23.9495 177.449 22.9029V9.95853H178.298V22.7743C178.298 23.6835 178.521 24.3784 178.967 24.8587C179.412 25.3391 180.064 25.5793 180.921 25.5793C181.795 25.5793 182.515 25.3134 183.081 24.7815L183.518 25.3992C183.193 25.708 182.79 25.9396 182.31 26.094C181.83 26.2484 181.341 26.3256 180.844 26.3256ZM174.929 13.6385V12.8923H182.695V13.6385H174.929Z" fill="#585856"/>
<path d="M191.827 26.3256C190.575 26.3256 189.452 26.0425 188.458 25.4764C187.48 24.893 186.7 24.0867 186.117 23.0573C185.552 22.028 185.269 20.8613 185.269 19.5575C185.269 18.2364 185.552 17.0698 186.117 16.0576C186.7 15.0454 187.48 14.2476 188.458 13.6643C189.452 13.081 190.575 12.7893 191.827 12.7893C193.078 12.7893 194.201 13.081 195.195 13.6643C196.19 14.2476 196.97 15.0454 197.536 16.0576C198.101 17.0698 198.384 18.2364 198.384 19.5575C198.384 20.8613 198.101 22.028 197.536 23.0573C196.97 24.0867 196.19 24.893 195.195 25.4764C194.201 26.0425 193.078 26.3256 191.827 26.3256ZM191.827 25.5536C192.924 25.5536 193.901 25.3048 194.758 24.8073C195.633 24.2926 196.31 23.5806 196.79 22.6713C197.287 21.762 197.536 20.7241 197.536 19.5575C197.536 18.3737 197.287 17.3357 196.79 16.4436C196.31 15.5343 195.633 14.8309 194.758 14.3334C193.901 13.8358 192.924 13.5871 191.827 13.5871C190.746 13.5871 189.778 13.8358 188.921 14.3334C188.063 14.8309 187.378 15.5343 186.863 16.4436C186.366 17.3357 186.117 18.3737 186.117 19.5575C186.117 20.7241 186.366 21.762 186.863 22.6713C187.378 23.5806 188.063 24.2926 188.921 24.8073C189.778 25.3048 190.746 25.5536 191.827 25.5536Z" fill="#585856"/>
<path d="M209.524 26.2484V8.23433H215.773C217.265 8.23433 218.542 8.47452 219.605 8.95489C220.685 9.43527 221.508 10.1215 222.074 11.0136C222.64 11.8886 222.923 12.9523 222.923 14.2047C222.923 15.4571 222.64 16.5294 222.074 17.4215C221.508 18.3136 220.685 18.9999 219.605 19.4803C218.542 19.9606 217.265 20.2008 215.773 20.2008H210.013L210.399 19.7891V26.2484H209.524ZM210.399 19.7891L210.013 19.403H215.825C217.848 19.403 219.391 18.9484 220.454 18.0391C221.534 17.1298 222.074 15.8517 222.074 14.2047C222.074 12.5577 221.534 11.2881 220.454 10.396C219.391 9.48674 217.848 9.03209 215.825 9.03209H210.013L210.399 8.62034V19.7891Z" fill="#585856"/>
<path d="M226.667 26.2484V12.8923H227.49V16.5723L227.413 16.3407C227.773 15.2255 228.398 14.3591 229.29 13.7415C230.198 13.1067 231.33 12.7893 232.684 12.7893V13.6385C232.65 13.6385 232.607 13.6385 232.556 13.6385C232.522 13.6385 232.487 13.6385 232.453 13.6385C230.91 13.6385 229.701 14.1275 228.827 15.1054C227.953 16.0833 227.515 17.4301 227.515 19.1457V26.2484H226.667Z" fill="#585856"/>
<path d="M241.531 26.3256C240.211 26.3256 239.046 26.0425 238.034 25.4764C237.023 24.893 236.225 24.0867 235.642 23.0573C235.06 22.028 234.768 20.8613 234.768 19.5575C234.768 18.2364 235.034 17.0698 235.565 16.0576C236.114 15.0454 236.86 14.2476 237.803 13.6643C238.763 13.081 239.843 12.7893 241.043 12.7893C242.226 12.7893 243.289 13.0724 244.232 13.6385C245.192 14.2047 245.938 14.9939 246.469 16.0061C247.018 17.0012 247.292 18.1506 247.292 19.4545C247.292 19.4888 247.292 19.5317 247.292 19.5832C247.292 19.6175 247.292 19.6518 247.292 19.6861H235.334V18.9913H246.829L246.495 19.403C246.495 18.2879 246.255 17.2928 245.775 16.4179C245.312 15.5257 244.669 14.8309 243.846 14.3334C243.023 13.8187 242.089 13.5613 241.043 13.5613C239.997 13.5613 239.063 13.8187 238.24 14.3334C237.417 14.8309 236.765 15.5257 236.285 16.4179C235.822 17.2928 235.591 18.2965 235.591 19.4288V19.5832C235.591 20.7498 235.848 21.7878 236.362 22.697C236.877 23.5892 237.58 24.2926 238.471 24.8073C239.363 25.3048 240.383 25.5536 241.531 25.5536C242.406 25.5536 243.229 25.3906 244 25.0646C244.789 24.7386 245.44 24.2411 245.955 23.572L246.495 24.1382C245.895 24.8587 245.158 25.4077 244.283 25.7852C243.426 26.1455 242.509 26.3256 241.531 26.3256Z" fill="#585856"/>
<path d="M254.597 26.2484L248.502 12.8923H249.428L255.214 25.7337H254.828L260.64 12.8923H261.54L255.446 26.2484H254.597Z" fill="#585856"/>
<path d="M264.513 26.2484V12.8923H265.362V26.2484H264.513ZM264.925 9.39238C264.702 9.39238 264.505 9.30659 264.333 9.13503C264.162 8.96347 264.076 8.77475 264.076 8.56888C264.076 8.32869 264.162 8.13139 264.333 7.97699C264.505 7.80542 264.702 7.71964 264.925 7.71964C265.165 7.71964 265.362 7.80542 265.516 7.97699C265.688 8.13139 265.773 8.32011 265.773 8.54314C265.773 8.76617 265.688 8.96347 265.516 9.13503C265.362 9.30659 265.165 9.39238 264.925 9.39238Z" fill="#585856"/>
<path d="M276.083 26.3256C274.848 26.3256 273.734 26.0425 272.739 25.4764C271.762 24.893 270.982 24.0953 270.399 23.0831C269.833 22.0537 269.551 20.8785 269.551 19.5575C269.551 18.2193 269.833 17.0526 270.399 16.0576C270.982 15.0454 271.762 14.2476 272.739 13.6643C273.734 13.081 274.848 12.7893 276.083 12.7893C277.283 12.7893 278.363 13.0724 279.323 13.6385C280.283 14.2047 281.037 14.9939 281.586 16.0061C282.152 17.0183 282.435 18.2021 282.435 19.5575C282.435 20.8956 282.152 22.0794 281.586 23.1088C281.037 24.1382 280.283 24.9359 279.323 25.5021C278.363 26.0511 277.283 26.3256 276.083 26.3256ZM276.108 25.5536C277.206 25.5536 278.183 25.3048 279.04 24.8073C279.897 24.2926 280.574 23.5806 281.072 22.6713C281.569 21.762 281.817 20.7241 281.817 19.5575C281.817 18.3737 281.569 17.3357 281.072 16.4436C280.574 15.5343 279.897 14.8309 279.04 14.3334C278.183 13.8358 277.206 13.5871 276.108 13.5871C275.028 13.5871 274.06 13.8358 273.202 14.3334C272.345 14.8309 271.659 15.5343 271.145 16.4436C270.648 17.3357 270.399 18.3737 270.399 19.5575C270.399 20.7241 270.648 21.762 271.145 22.6713C271.659 23.5806 272.345 24.2926 273.202 24.8073C274.06 25.3048 275.028 25.5536 276.108 25.5536ZM281.843 26.2484V21.5647L282.075 19.5317L281.817 17.4987V7.15349H282.666V26.2484H281.843Z" fill="#585856"/>
<path d="M293.617 26.3256C292.297 26.3256 291.132 26.0425 290.12 25.4764C289.108 24.893 288.311 24.0867 287.728 23.0573C287.145 22.028 286.854 20.8613 286.854 19.5575C286.854 18.2364 287.12 17.0698 287.651 16.0576C288.2 15.0454 288.946 14.2476 289.889 13.6643C290.849 13.081 291.929 12.7893 293.129 12.7893C294.312 12.7893 295.375 13.0724 296.318 13.6385C297.278 14.2047 298.023 14.9939 298.555 16.0061C299.104 17.0012 299.378 18.1506 299.378 19.4545C299.378 19.4888 299.378 19.5317 299.378 19.5832C299.378 19.6175 299.378 19.6518 299.378 19.6861H287.42V18.9913H298.915L298.581 19.403C298.581 18.2879 298.341 17.2928 297.861 16.4179C297.398 15.5257 296.755 14.8309 295.932 14.3334C295.109 13.8187 294.175 13.5613 293.129 13.5613C292.083 13.5613 291.149 13.8187 290.326 14.3334C289.503 14.8309 288.851 15.5257 288.371 16.4179C287.908 17.2928 287.677 18.2965 287.677 19.4288V19.5832C287.677 20.7498 287.934 21.7878 288.448 22.697C288.963 23.5892 289.666 24.2926 290.557 24.8073C291.449 25.3048 292.469 25.5536 293.617 25.5536C294.492 25.5536 295.315 25.3906 296.086 25.0646C296.875 24.7386 297.526 24.2411 298.041 23.572L298.581 24.1382C297.981 24.8587 297.243 25.4077 296.369 25.7852C295.512 26.1455 294.595 26.3256 293.617 26.3256Z" fill="#585856"/>
<path d="M309.866 12.7893C310.963 12.7893 311.906 13.0038 312.694 13.4327C313.5 13.8616 314.126 14.4964 314.572 15.337C315.017 16.1605 315.24 17.1813 315.24 18.3994V26.2484H314.392V18.4509C314.392 16.8553 313.989 15.6458 313.183 14.8223C312.377 13.9988 311.246 13.5871 309.788 13.5871C308.674 13.5871 307.714 13.8101 306.908 14.2562C306.102 14.7022 305.485 15.337 305.057 16.1605C304.628 16.984 304.414 17.9448 304.414 19.0428V26.2484H303.565V12.8923H304.388V16.6495L304.285 16.4179C304.697 15.3027 305.374 14.4192 306.317 13.7672C307.277 13.1153 308.46 12.7893 309.866 12.7893Z" fill="#585856"/>
<path d="M325.911 26.3256C324.642 26.3256 323.502 26.0425 322.49 25.4764C321.496 24.893 320.707 24.0953 320.124 23.0831C319.559 22.0537 319.276 20.8785 319.276 19.5575C319.276 18.2364 319.559 17.0698 320.124 16.0576C320.707 15.0282 321.496 14.2304 322.49 13.6643C323.502 13.081 324.642 12.7893 325.911 12.7893C326.922 12.7893 327.857 12.9866 328.714 13.3812C329.571 13.7586 330.283 14.3248 330.848 15.0797L330.205 15.6201C329.708 14.9167 329.082 14.402 328.328 14.076C327.591 13.7501 326.785 13.5871 325.911 13.5871C324.813 13.5871 323.828 13.8358 322.953 14.3334C322.079 14.8309 321.385 15.5343 320.87 16.4436C320.373 17.3357 320.124 18.3737 320.124 19.5575C320.124 20.7412 320.373 21.7878 320.87 22.697C321.385 23.5892 322.079 24.2926 322.953 24.8073C323.828 25.3048 324.813 25.5536 325.911 25.5536C326.785 25.5536 327.591 25.3906 328.328 25.0646C329.082 24.7215 329.708 24.2068 330.205 23.5205L330.848 24.0352C330.283 24.8073 329.571 25.382 328.714 25.7594C327.857 26.1369 326.922 26.3256 325.911 26.3256Z" fill="#585856"/>
<path d="M334.681 26.2484V12.8923H335.53V26.2484H334.681ZM335.092 9.39238C334.87 9.39238 334.672 9.30659 334.501 9.13503C334.33 8.96347 334.244 8.77475 334.244 8.56888C334.244 8.32869 334.33 8.13139 334.501 7.97699C334.672 7.80542 334.87 7.71964 335.092 7.71964C335.332 7.71964 335.53 7.80542 335.684 7.97699C335.855 8.13139 335.941 8.32011 335.941 8.54314C335.941 8.76617 335.855 8.96347 335.684 9.13503C335.53 9.30659 335.332 9.39238 335.092 9.39238Z" fill="#585856"/>
<path d="M349.722 26.2484V23.1345L349.696 22.6713V17.6016C349.696 16.2806 349.345 15.277 348.642 14.5907C347.939 13.9045 346.919 13.5613 345.582 13.5613C344.605 13.5613 343.713 13.7329 342.907 14.076C342.101 14.402 341.407 14.8309 340.824 15.3628L340.361 14.7451C340.996 14.1447 341.776 13.6729 342.702 13.3297C343.627 12.9695 344.596 12.7893 345.608 12.7893C347.202 12.7893 348.419 13.2011 349.259 14.0246C350.116 14.8309 350.545 16.0233 350.545 17.6016V26.2484H349.722ZM344.759 26.3256C343.747 26.3256 342.882 26.1712 342.161 25.8624C341.459 25.5536 340.919 25.1161 340.541 24.5499C340.164 23.9666 339.976 23.3061 339.976 22.5684C339.976 21.9164 340.13 21.316 340.439 20.767C340.747 20.2008 341.253 19.7547 341.956 19.4288C342.676 19.0857 343.636 18.9141 344.836 18.9141H350.005V19.6089H344.836C343.379 19.6089 342.342 19.8834 341.724 20.4324C341.124 20.9814 340.824 21.6763 340.824 22.5169C340.824 23.4605 341.176 24.2154 341.879 24.7815C342.582 25.3305 343.559 25.605 344.81 25.605C346.045 25.605 347.065 25.3305 347.871 24.7815C348.676 24.2154 349.285 23.4176 349.696 22.3882L349.979 22.9544C349.636 23.9666 349.019 24.7815 348.128 25.3992C347.236 26.0168 346.113 26.3256 344.759 26.3256ZM344.193 10.6276L347.768 7.71964H349.156L345.222 10.6276H344.193Z" fill="#585856"/>
<path d="M356.103 26.2484V12.8923H356.926V16.5723L356.849 16.3407C357.209 15.2255 357.835 14.3591 358.726 13.7415C359.635 13.1067 360.766 12.7893 362.121 12.7893V13.6385C362.086 13.6385 362.044 13.6385 361.992 13.6385C361.958 13.6385 361.924 13.6385 361.889 13.6385C360.346 13.6385 359.138 14.1275 358.263 15.1054C357.389 16.0833 356.952 17.4301 356.952 19.1457V26.2484H356.103Z" fill="#585856"/>
<path d="M365.847 26.2484V12.8923H366.696V26.2484H365.847ZM366.259 9.39238C366.036 9.39238 365.839 9.30659 365.667 9.13503C365.496 8.96347 365.41 8.77475 365.41 8.56888C365.41 8.32869 365.496 8.13139 365.667 7.97699C365.839 7.80542 366.036 7.71964 366.259 7.71964C366.499 7.71964 366.696 7.80542 366.85 7.97699C367.022 8.13139 367.107 8.32011 367.107 8.54314C367.107 8.76617 367.022 8.96347 366.85 9.13503C366.696 9.30659 366.499 9.39238 366.259 9.39238Z" fill="#585856"/>
<path d="M377.442 26.3256C376.191 26.3256 375.068 26.0425 374.073 25.4764C373.096 24.893 372.316 24.0867 371.733 23.0573C371.167 22.028 370.885 20.8613 370.885 19.5575C370.885 18.2364 371.167 17.0698 371.733 16.0576C372.316 15.0454 373.096 14.2476 374.073 13.6643C375.068 13.081 376.191 12.7893 377.442 12.7893C378.694 12.7893 379.817 13.081 380.811 13.6643C381.806 14.2476 382.586 15.0454 383.151 16.0576C383.717 17.0698 384 18.2364 384 19.5575C384 20.8613 383.717 22.028 383.151 23.0573C382.586 24.0867 381.806 24.893 380.811 25.4764C379.817 26.0425 378.694 26.3256 377.442 26.3256ZM377.442 25.5536C378.54 25.5536 379.517 25.3048 380.374 24.8073C381.248 24.2926 381.926 23.5806 382.406 22.6713C382.903 21.762 383.151 20.7241 383.151 19.5575C383.151 18.3737 382.903 17.3357 382.406 16.4436C381.926 15.5343 381.248 14.8309 380.374 14.3334C379.517 13.8358 378.54 13.5871 377.442 13.5871C376.362 13.5871 375.394 13.8358 374.536 14.3334C373.679 14.8309 372.993 15.5343 372.479 16.4436C371.982 17.3357 371.733 18.3737 371.733 19.5575C371.733 20.7241 371.982 21.762 372.479 22.6713C372.993 23.5806 373.679 24.2926 374.536 24.8073C375.394 25.3048 376.362 25.5536 377.442 25.5536Z" fill="#585856"/>
</svg>
