<svg width="16" height="16" viewBox="0 0 16 16" fill="none" xmlns="http://www.w3.org/2000/svg">
<path d="M8.02076 0.0523603L10.4857 5.03166L16 5.83029L12.0088 9.70872L12.9539 15.1812L8.02076 12.5977L3.08441 15.1812L4.02631 9.70872L0.0383488 5.83029L5.55255 5.03166L8.02076 0.0523603Z" fill="#FBBC04"/>
<path d="M7.98241 0.00461324L10.4506 4.98391L15.9649 5.78254L11.9737 9.66097L12.9156 15.1335L7.98241 12.5499L3.04931 15.1335L3.9912 9.66097L0 5.78254L5.51427 4.98391L7.98241 0.00461324Z" fill="#FBBC04"/>
<path d="M7.98241 0.00461324L10.4506 4.98391L15.9649 5.78254L11.9737 9.66097L12.9156 15.1335L7.98241 12.5499L3.04931 15.1335L3.9912 9.66097L0 5.78254L5.51427 4.98391L7.98241 0.00461324Z" fill="#FBBC04"/>
<path d="M7.98241 0.00461324L10.4506 4.98391L15.9649 5.78254L11.9737 9.66097L12.9156 15.1335L7.98241 12.5499L3.04931 15.1335L3.9912 9.66097L0 5.78254L5.51427 4.98391L7.98241 0.00461324Z" fill="#FBBC04"/>
</svg>
