<svg width="35" height="24" viewBox="0 0 35 24" fill="none" xmlns="http://www.w3.org/2000/svg">
<path d="M34.2695 3.75625C33.8658 2.275 32.6803 1.1125 31.1745 0.71875C28.4447 0 17.5 0 17.5 0C17.5 0 6.55529 0 3.82552 0.71875C2.31966 1.1125 1.1342 2.275 0.730502 3.75625C0 6.4375 0 12.025 0 12.025C0 12.025 0 17.6125 0.730502 20.2938C1.1342 21.775 2.31966 22.8875 3.82552 23.2812C6.55529 24 17.5 24 17.5 24C17.5 24 28.4447 24 31.1745 23.2812C32.6803 22.8875 33.8658 21.7688 34.2695 20.2938C35 17.6125 35 12.025 35 12.025C35 12.025 35 6.4375 34.2695 3.75625ZM13.9244 17.1V6.95L23.0685 12.025L13.9244 17.1Z" fill="#F8F8F8"/>
</svg>
